<?xml version="1.0" encoding="UTF-8"?>
<svg width="1200pt" height="1200pt" version="1.1" viewBox="0 0 1200 1200" xmlns="http://www.w3.org/2000/svg">
 <path d="m1095 458.72h-990.1c-37.219 0-67.453 30.281-67.453 67.453v147.61c0 37.219 30.281 67.453 67.453 67.453h990.05c37.219 0 67.453-30.281 67.453-67.453v-147.61c0.046875-37.172-30.234-67.453-67.406-67.453zm42.984 215.11c0 23.719-19.266 42.984-42.984 42.984h-990.1c-23.719 0-42.984-19.266-42.984-42.984v-147.61c0-23.719 19.266-42.984 42.984-42.984h990.05c23.719 0 42.984 19.266 42.984 42.984zm-825.94-93.844-26.297 20.016 26.297 20.016c5.3906 4.0781 6.4219 11.766 2.2969 17.156-2.3906 3.1406-6.0469 4.8281-9.75 4.8281-2.5781 0-5.2031-0.79687-7.4062-2.4844l-19.406-14.766v17.391c0 6.75-5.4844 12.234-12.234 12.234s-12.234-5.4844-12.234-12.234v-17.391l-19.406 14.766c-2.2031 1.6875-4.8281 2.4844-7.4062 2.4844-3.7031 0-7.3125-1.6406-9.75-4.8281-4.0781-5.3906-3.0469-13.031 2.2969-17.156l26.344-20.016-26.297-20.016c-5.3906-4.0781-6.4219-11.766-2.2969-17.156 4.0781-5.3906 11.766-6.4219 17.156-2.2969l19.406 14.766v-17.391c0-6.75 5.4844-12.234 12.234-12.234s12.234 5.4844 12.234 12.234v17.391l19.406-14.766c5.3906-4.0781 13.031-3.0469 17.156 2.2969 4.0781 5.3906 3.0469 13.078-2.3438 17.156zm217.5 0-26.25 20.016 26.297 20.016c5.3906 4.0781 6.4219 11.766 2.2969 17.156-2.3906 3.1406-6.0469 4.8281-9.75 4.8281-2.5781 0-5.2031-0.79687-7.4062-2.4844l-19.406-14.766v17.391c0 6.75-5.4844 12.234-12.234 12.234s-12.234-5.4844-12.234-12.234v-17.391l-19.406 14.766c-2.2031 1.6875-4.8281 2.4844-7.4062 2.4844-3.7031 0-7.3125-1.6406-9.75-4.8281-4.0781-5.3906-3.0469-13.031 2.2969-17.156l26.344-20.016-26.297-20.016c-5.3906-4.0781-6.4219-11.766-2.2969-17.156 4.0781-5.3906 11.766-6.4219 17.156-2.2969l19.406 14.766v-17.391c0-6.75 5.4844-12.234 12.234-12.234s12.234 5.4844 12.234 12.234v17.391l19.406-14.766c5.3906-4.0781 13.031-3.0469 17.156 2.2969 4.0312 5.3906 3 13.078-2.3906 17.156zm217.55 0-26.297 20.016 26.297 20.016c5.3906 4.0781 6.4219 11.766 2.2969 17.156-2.3906 3.1406-6.0469 4.8281-9.75 4.8281-2.5781 0-5.2031-0.79687-7.4062-2.4844l-19.406-14.766v17.391c0 6.75-5.4844 12.234-12.234 12.234s-12.234-5.4844-12.234-12.234v-17.391l-19.406 14.766c-2.2031 1.6875-4.8281 2.4844-7.4062 2.4844-3.7031 0-7.3125-1.6406-9.75-4.8281-4.0781-5.3906-3.0469-13.031 2.2969-17.156l26.344-20.016-26.297-20.016c-5.3906-4.0781-6.4219-11.766-2.2969-17.156 4.0781-5.3906 11.766-6.4219 17.156-2.2969l19.406 14.766v-17.391c0-6.75 5.4844-12.234 12.234-12.234s12.234 5.4844 12.234 12.234v17.391l19.406-14.766c5.3906-4.0781 13.031-3.0469 17.156 2.2969 4.0781 5.3906 3.0469 13.078-2.3438 17.156zm238.5 49.781c0 6.75-5.4844 12.234-12.234 12.234h-110.48c-6.75 0-12.234-5.4844-12.234-12.234s5.4844-12.234 12.234-12.234h110.48c6.75 0 12.234 5.4375 12.234 12.234z"/>
</svg>
